<svg width="1000" height="600" xmlns="http://www.w3.org/2000/svg"><path fill="#e8e5ff" d="M0 0h1000v600H0z"/><path d="M0 300h0c35.213-15.286 70.425-30.571 109-22 38.575 8.571 80.512 41 117 45s67.528-20.429 104-35c36.472-14.571 78.376-19.285 117-5 38.624 14.285 73.968 47.57 109 51 35.032 3.43 69.752-22.992 107-25 37.248-2.008 77.025 20.4 112 25 34.975 4.6 65.147-8.608 107-24 41.853-15.392 95.387-32.97 117-35 21.613-2.03 11.307 11.485 41 25" fill="none" stroke="#614fff" stroke-width="8" stroke-linecap="round"/></svg>